<svg width="24" height="24" viewBox="0 0 24 24" fill="none" xmlns="http://www.w3.org/2000/svg">
<path fill-rule="evenodd" clip-rule="evenodd" d="M8 4.75C8 4.33579 8.33579 4 8.75 4C9.16421 4 9.5 4.33579 9.5 4.75V6H14.5V4.75C14.5 4.33579 14.8358 4 15.25 4C15.6642 4 16 4.33579 16 4.75V6H17C18.6569 6 20 7.34315 20 9V17C20 18.6569 18.6569 20 17 20H7C5.34315 20 4 18.6569 4 17V9C4 7.34315 5.34315 6 7 6H8V4.75ZM17 7.5H7C6.17157 7.5 5.5 8.17157 5.5 9V9.5H18.5V9C18.5 8.17157 17.8284 7.5 17 7.5ZM5.5 17V11H18.5V17C18.5 17.8284 17.8284 18.5 17 18.5H7C6.17157 18.5 5.5 17.8284 5.5 17ZM8.25 13.25C8.25 13.6642 7.91421 14 7.5 14C7.08579 14 6.75 13.6642 6.75 13.25C6.75 12.8358 7.08579 12.5 7.5 12.5C7.91421 12.5 8.25 12.8358 8.25 13.25ZM12.75 13.25C12.75 13.6642 12.4142 14 12 14C11.5858 14 11.25 13.6642 11.25 13.25C11.25 12.8358 11.5858 12.5 12 12.5C12.4142 12.5 12.75 12.8358 12.75 13.25ZM16.5 14C16.9142 14 17.25 13.6642 17.25 13.25C17.25 12.8358 16.9142 12.5 16.5 12.5C16.0858 12.5 15.75 12.8358 15.75 13.25C15.75 13.6642 16.0858 14 16.5 14ZM8.25 16.25C8.25 16.6642 7.91421 17 7.5 17C7.08579 17 6.75 16.6642 6.75 16.25C6.75 15.8358 7.08579 15.5 7.5 15.5C7.91421 15.5 8.25 15.8358 8.25 16.25ZM12.75 16.25C12.75 16.6642 12.4142 17 12 17C11.5858 17 11.25 16.6642 11.25 16.25C11.25 15.8358 11.5858 15.5 12 15.5C12.4142 15.5 12.75 15.8358 12.75 16.25ZM16.5 17C16.9142 17 17.25 16.6642 17.25 16.25C17.25 15.8358 16.9142 15.5 16.5 15.5C16.0858 15.5 15.75 15.8358 15.75 16.25C15.75 16.6642 16.0858 17 16.5 17Z" fill="black"/>
</svg>
