<svg width="24" height="24" viewBox="0 0 24 24" fill="none" xmlns="http://www.w3.org/2000/svg">
<path fill-rule="evenodd" clip-rule="evenodd" d="M10 5.5H14C14.2761 5.5 14.5 5.72386 14.5 6V7.5H9.5V6C9.5 5.72386 9.72386 5.5 10 5.5ZM8 7.5V6C8 4.89543 8.89543 4 10 4H14C15.1046 4 16 4.89543 16 6V7.5H19.25C19.6642 7.5 20 7.83579 20 8.25C20 8.66421 19.6642 9 19.25 9H16H14.5H9.5H8H4.75C4.33579 9 4 8.66421 4 8.25C4 7.83579 4.33579 7.5 4.75 7.5H8ZM6.5 10.5C6.91421 10.5 7.25 10.8358 7.25 11.25V16.25C7.25 17.4926 8.25736 18.5 9.5 18.5H14.5C15.7426 18.5 16.75 17.4926 16.75 16.25V11.25C16.75 10.8358 17.0858 10.5 17.5 10.5C17.9142 10.5 18.25 10.8358 18.25 11.25V16.25C18.25 18.3211 16.5711 20 14.5 20H9.5C7.42893 20 5.75 18.3211 5.75 16.25V11.25C5.75 10.8358 6.08579 10.5 6.5 10.5ZM9.75 12.75C9.75 12.3358 10.0858 12 10.5 12C10.9142 12 11.25 12.3358 11.25 12.75V16.25C11.25 16.6642 10.9142 17 10.5 17C10.0858 17 9.75 16.6642 9.75 16.25V12.75ZM12.75 12.75C12.75 12.3358 13.0858 12 13.5 12C13.9142 12 14.25 12.3358 14.25 12.75V16.25C14.25 16.6642 13.9142 17 13.5 17C13.0858 17 12.75 16.6642 12.75 16.25V12.75Z" fill="black"/>
</svg>
