<svg width="24" height="24" viewBox="0 0 24 24" fill="none" xmlns="http://www.w3.org/2000/svg">
<path fill-rule="evenodd" clip-rule="evenodd" d="M17.1706 4.84758L16.3251 5.69305C16.6521 6.70419 17.4832 7.48175 18.5267 7.73414L19.2919 6.9689C19.6824 6.57838 19.6824 5.94521 19.2919 5.55469L18.5848 4.84758C18.1943 4.45706 17.5611 4.45706 17.1706 4.84758ZM11.5708 10.4473L15.1813 6.8369C15.6502 7.7494 16.4153 8.48132 17.3523 8.90847L13.6922 12.5686C13.4902 12.7706 13.2347 12.9108 12.9557 12.9725L10.6584 13.4811L11.167 11.1838C11.2287 10.9048 11.3688 10.6493 11.5708 10.4473ZM10.5102 9.38664C10.1062 9.79067 9.82592 10.3017 9.70242 10.8595L9.02433 13.9226C8.86628 14.6366 9.5029 15.2732 10.2168 15.1151L13.2799 14.437C13.8378 14.3135 14.3488 14.0333 14.7528 13.6293L20.3526 8.02956C21.3289 7.05325 21.3289 5.47034 20.3526 4.49403L19.6454 3.78692C18.6691 2.81061 17.0862 2.81061 16.1099 3.78692L10.5102 9.38664ZM9.375 3.62898C6.19936 3.62898 3.625 6.20334 3.625 9.37898V14.629C3.625 17.8046 6.19936 20.379 9.375 20.379H14.625C17.8006 20.379 20.375 17.8046 20.375 14.629V11.9571C20.375 11.5429 20.0392 11.2071 19.625 11.2071C19.2108 11.2071 18.875 11.5429 18.875 11.9571V14.629C18.875 16.9762 16.9722 18.879 14.625 18.879H9.375C7.02779 18.879 5.125 16.9762 5.125 14.629V9.37898C5.125 7.03177 7.02779 5.12898 9.375 5.12898H12.0938C12.508 5.12898 12.8438 4.7932 12.8438 4.37898C12.8438 3.96477 12.508 3.62898 12.0938 3.62898H9.375Z" fill="black"/>
</svg>
