<svg width="24" height="24" viewBox="0 0 24 24" fill="none" xmlns="http://www.w3.org/2000/svg">
<path fill-rule="evenodd" clip-rule="evenodd" d="M6.65528 15.8332L10.4776 8.18864C10.9516 7.24068 11.2618 6.62353 11.5254 6.19805C11.6919 5.92919 11.7872 5.82806 11.815 5.80034C11.9327 5.75405 12.0635 5.75405 12.1812 5.80034C12.209 5.82806 12.3043 5.92918 12.4708 6.19805C12.7344 6.62354 13.0446 7.24069 13.5186 8.18864L17.3409 15.8332L17.3409 15.8332C17.7374 16.6261 17.9871 17.129 18.1364 17.5112C18.2288 17.7477 18.2486 17.8577 18.2529 17.8888C18.2296 18.0085 18.1634 18.1156 18.0668 18.1899C18.037 18.2 17.9298 18.2314 17.6769 18.2546C17.2684 18.292 16.7069 18.2935 15.8204 18.2935H8.17581C7.28933 18.2935 6.72785 18.292 6.31926 18.2546C6.06636 18.2314 5.95918 18.2 5.92943 18.1899C5.83276 18.1156 5.76656 18.0085 5.74333 17.8888C5.74762 17.8577 5.7674 17.7477 5.85979 17.5112C6.00907 17.129 6.25884 16.6261 6.65528 15.8332ZM9.13594 7.51782L5.31364 15.1624C4.54692 16.6958 4.16357 17.4626 4.25565 18.0858C4.33606 18.63 4.63708 19.1171 5.08789 19.4324C5.60416 19.7935 6.46138 19.7935 8.17581 19.7935H15.8204C17.5348 19.7935 18.392 19.7935 18.9083 19.4324C19.3591 19.1171 19.6601 18.63 19.7406 18.0858C19.8326 17.4626 19.4493 16.6959 18.6826 15.1625L18.6826 15.1625L18.6826 15.1624L14.8603 7.51782C13.9391 5.67539 13.4784 4.75418 12.8552 4.45857C12.3127 4.20131 11.6835 4.20131 11.1411 4.45857C10.5178 4.75418 10.0571 5.67539 9.13594 7.51782ZM11.1583 9.98301C11.0722 9.46666 11.4704 8.99661 11.9939 8.99661C12.5174 8.99661 12.9155 9.46666 12.8295 9.98301L12.1912 13.8129C12.154 14.0358 11.8337 14.0358 11.7966 13.8129L11.1583 9.98301ZM12.7439 15.7466C12.7439 16.1608 12.4081 16.4966 11.9939 16.4966C11.5797 16.4966 11.2439 16.1608 11.2439 15.7466C11.2439 15.3324 11.5797 14.9966 11.9939 14.9966C12.4081 14.9966 12.7439 15.3324 12.7439 15.7466Z" fill="#CA001E"/>
</svg>
