<svg width="24" height="24" viewBox="0 0 24 24" fill="none" xmlns="http://www.w3.org/2000/svg">
<path fill-rule="evenodd" clip-rule="evenodd" d="M13.5 5.5H10.5C10.2239 5.5 10 5.72386 10 6V7C10 7.27614 10.2239 7.5 10.5 7.5H13.5C13.7761 7.5 14 7.27614 14 7V6C14 5.72386 13.7761 5.5 13.5 5.5ZM10.5 4C9.39543 4 8.5 4.89543 8.5 6V6.125C6.77477 6.56904 5.5 8.13514 5.5 9.99898V15.999C5.5 18.2081 7.29086 19.999 9.5 19.999H14.5C16.7091 19.999 18.5 18.2081 18.5 15.999V9.99898C18.5 8.13514 17.2252 6.56904 15.5 6.125V6C15.5 4.89543 14.6046 4 13.5 4H10.5ZM7 9.99898C7 8.93104 7.66963 8.01949 8.61192 7.66131C8.88496 8.4409 9.62719 9 10.5 9H13.5C14.3728 9 15.115 8.4409 15.3881 7.66132C16.3304 8.01949 17 8.93103 17 9.99898V15.999C17 17.3797 15.8807 18.499 14.5 18.499H9.5C8.11929 18.499 7 17.3797 7 15.999V9.99898ZM9 12.3016C9 11.915 9.3134 11.6016 9.7 11.6016H14.3C14.6866 11.6016 15 11.915 15 12.3016C15 12.6882 14.6866 13.0016 14.3 13.0016H9.7C9.3134 13.0016 9 12.6882 9 12.3016ZM9 15.2516C9 14.8373 9.33579 14.5016 9.75 14.5016H12.25C12.6642 14.5016 13 14.8373 13 15.2516C13 15.6658 12.6642 16.0016 12.25 16.0016H9.75C9.33579 16.0016 9 15.6658 9 15.2516Z" fill="black"/>
</svg>
