<svg width="24" height="24" viewBox="0 0 24 24" fill="none" xmlns="http://www.w3.org/2000/svg">
<path fill-rule="evenodd" clip-rule="evenodd" d="M11.4981 5.5C11.2219 5.5 10.9981 5.72386 10.9981 6C10.9981 6.94257 10.4474 7.70079 9.76156 8.09506L9.74036 8.10733C9.05448 8.50662 8.11939 8.60579 7.30045 8.13297C7.0613 7.9949 6.75551 8.07684 6.61744 8.31599L6.11744 9.18201C5.97937 9.42116 6.0613 9.72695 6.30045 9.86502C7.11845 10.3373 7.50172 11.1954 7.50001 11.99L7.5 12L7.50002 12.0137C7.50236 12.8071 7.11972 13.6637 6.30342 14.135C6.06427 14.273 5.98234 14.5788 6.12041 14.818L6.62041 15.684C6.75848 15.9232 7.06427 16.0051 7.30342 15.867C8.12118 15.3949 9.05505 15.4937 9.74019 15.8926L9.76156 15.9049C10.4474 16.2992 10.9981 17.0574 10.9981 18C10.9981 18.2761 11.2219 18.5 11.4981 18.5H12.4981C12.7742 18.5 12.9981 18.2761 12.9981 18C12.9981 17.0582 13.5486 16.3006 14.2346 15.9072L14.2624 15.8911C14.9459 15.4925 15.8774 15.3943 16.6928 15.865C16.9319 16.0031 17.2377 15.9212 17.3758 15.682L17.8758 14.816C18.0138 14.5768 17.9319 14.271 17.6928 14.133C16.8789 13.6631 16.497 12.8089 16.5 12.0171L16.5 12L16.5 11.9866C16.4977 11.1936 16.8802 10.3379 17.6957 9.86703C17.9349 9.72895 18.0168 9.42316 17.8787 9.18401L17.3787 8.31799C17.2407 8.07884 16.9349 7.9969 16.6957 8.13498C15.8792 8.60641 14.9465 8.50779 14.2623 8.10885L14.2346 8.09284C13.5486 7.69941 12.9981 6.94179 12.9981 6C12.9981 5.72386 12.7742 5.5 12.4981 5.5H11.4981ZM9.49809 6C9.49809 4.89543 10.3935 4 11.4981 4H12.4981C13.6027 4 14.4981 4.89543 14.4981 6C14.4981 6.33098 14.6938 6.627 14.9809 6.79167L15.0178 6.81303C15.3041 6.97994 15.6587 7.00163 15.9457 6.83594C16.9023 6.28365 18.1255 6.6114 18.6778 7.56799L19.1778 8.43401C19.7301 9.3906 19.4023 10.6138 18.4457 11.1661C18.1583 11.332 17.999 11.6503 18 11.9822L18 12L18 12.0227C17.9987 12.3526 18.157 12.669 18.4428 12.8339C19.3993 13.3862 19.7271 14.6094 19.1748 15.566L18.6748 16.432C18.1225 17.3886 16.8993 17.7163 15.9428 17.1641C15.6567 16.9989 15.3033 17.0205 15.018 17.1868L14.9809 17.2083C14.6938 17.373 14.4981 17.669 14.4981 18C14.4981 19.1046 13.6027 20 12.4981 20H11.4981C10.3935 20 9.49809 19.1046 9.49809 18C9.49809 17.6679 9.30187 17.3709 9.01396 17.2054L8.98547 17.1889C8.69784 17.0214 8.34166 16.9997 8.05342 17.1661C7.09683 17.7183 5.87365 17.3906 5.32137 16.434L4.82137 15.568C4.26908 14.6114 4.59683 13.3882 5.55342 12.8359C5.84147 12.6696 6.00101 12.3507 6.00003 12.0181L6 12L6.00001 11.9868C6.00073 11.6522 5.84024 11.3314 5.55045 11.1641C4.59387 10.6118 4.26612 9.3886 4.8184 8.43201L5.3184 7.56599C5.87068 6.6094 7.09387 6.28165 8.05045 6.83394C8.33967 7.00092 8.69707 6.97902 8.98569 6.81099L9.01396 6.79464C9.30187 6.62913 9.49809 6.33209 9.49809 6ZM12 13.5C12.8284 13.5 13.5 12.8284 13.5 12C13.5 11.1716 12.8284 10.5 12 10.5C11.1716 10.5 10.5 11.1716 10.5 12C10.5 12.8284 11.1716 13.5 12 13.5ZM12 15C13.6569 15 15 13.6569 15 12C15 10.3431 13.6569 9 12 9C10.3431 9 9 10.3431 9 12C9 13.6569 10.3431 15 12 15Z" fill="black"/>
</svg>
