<svg width="24" height="24" viewBox="0 0 24 24" fill="none" xmlns="http://www.w3.org/2000/svg">
<path fill-rule="evenodd" clip-rule="evenodd" d="M6.5 7.5C7.05228 7.5 7.5 7.05228 7.5 6.5C7.5 5.94772 7.05228 5.5 6.5 5.5C5.94772 5.5 5.5 5.94772 5.5 6.5C5.5 7.05228 5.94772 7.5 6.5 7.5ZM6.5 9C7.88071 9 9 7.88071 9 6.5C9 5.11929 7.88071 4 6.5 4C5.11929 4 4 5.11929 4 6.5C4 7.88071 5.11929 9 6.5 9ZM11 6.5C11 6.08579 11.3358 5.75 11.75 5.75H19.25C19.6642 5.75 20 6.08579 20 6.5C20 6.91421 19.6642 7.25 19.25 7.25H11.75C11.3358 7.25 11 6.91421 11 6.5ZM17.5 18.5C16.9477 18.5 16.5 18.0523 16.5 17.5C16.5 16.9477 16.9477 16.5 17.5 16.5C18.0523 16.5 18.5 16.9477 18.5 17.5C18.5 18.0523 18.0523 18.5 17.5 18.5ZM17.5 20C16.1193 20 15 18.8807 15 17.5C15 16.1193 16.1193 15 17.5 15C18.8807 15 20 16.1193 20 17.5C20 18.8807 18.8807 20 17.5 20ZM13 17.5C13 17.0858 12.6642 16.75 12.25 16.75H4.75C4.33579 16.75 4 17.0858 4 17.5C4 17.9142 4.33579 18.25 4.75 18.25H12.25C12.6642 18.25 13 17.9142 13 17.5Z" fill="black"/>
</svg>
