<svg width="24" height="24" viewBox="0 0 24 24" fill="none" xmlns="http://www.w3.org/2000/svg">
<path fill-rule="evenodd" clip-rule="evenodd" d="M9.94043 4.19135C9.53074 4.28261 9.3127 4.71516 9.44241 5.11435C9.57211 5.51354 10.0005 5.72728 10.4122 5.64517C11.1619 5.49563 11.9343 5.47955 12.6934 5.59978C13.7034 5.75975 14.6612 6.15649 15.4885 6.75757C16.3158 7.35865 16.9892 8.14699 17.4534 9.05814C17.9177 9.96929 18.1597 10.9774 18.1597 12C18.1597 13.0226 17.9177 14.0307 17.4534 14.9419C16.9892 15.853 16.3158 16.6414 15.4885 17.2424C14.6612 17.8435 13.7034 18.2402 12.6934 18.4002C11.9343 18.5204 11.1619 18.5044 10.4122 18.3548C10.0005 18.2727 9.57211 18.4865 9.44241 18.8856C9.3127 19.2848 9.53074 19.7174 9.94043 19.8086C10.9204 20.0269 11.9351 20.0593 12.9312 19.9015C14.1781 19.704 15.3606 19.2142 16.382 18.4721C17.4033 17.7301 18.2346 16.7568 18.8077 15.6319C19.3809 14.507 19.6797 13.2625 19.6797 12C19.6797 10.7375 19.3809 9.49296 18.8077 8.36808C18.2346 7.2432 17.4033 6.26993 16.382 5.52786C15.3606 4.7858 14.1781 4.29599 12.9312 4.09849C11.9351 3.94073 10.9204 3.97307 9.94043 4.19135ZM10.1827 7.50962C10.4555 7.19789 10.9293 7.16631 11.241 7.43907L14.0923 9.93391C15.3444 11.0295 15.3444 12.9775 14.0923 14.0731L11.241 16.5679C10.9293 16.8407 10.4555 16.8091 10.1827 16.4974C9.90996 16.1856 9.94154 15.7118 10.2533 15.4391L13.1045 12.9442C13.1715 12.8856 13.2306 12.8216 13.2819 12.7535H5.05965C4.64544 12.7535 4.30965 12.4177 4.30965 12.0035C4.30965 11.5893 4.64544 11.2535 5.05965 11.2535H13.2819C13.2306 11.1854 13.1715 11.1214 13.1045 11.0628L10.2533 8.56793C9.94154 8.29517 9.90996 7.82135 10.1827 7.50962Z" fill="black"/>
</svg>
