<svg width="24" height="24" viewBox="0 0 24 24" fill="none" xmlns="http://www.w3.org/2000/svg">
<path fill-rule="evenodd" clip-rule="evenodd" d="M14.3721 4.19135C14.7818 4.28261 14.9998 4.71516 14.8701 5.11435C14.7404 5.51354 14.312 5.72728 13.9003 5.64517C13.1506 5.49563 12.3782 5.47955 11.6191 5.59978C10.6091 5.75975 9.65127 6.15649 8.82396 6.75757C7.99665 7.35865 7.32334 8.14699 6.85909 9.05814C6.39483 9.96929 6.15281 10.9774 6.15281 12C6.15281 13.0226 6.39483 14.0307 6.85909 14.9419C7.32335 15.853 7.99665 16.6413 8.82396 17.2424C9.65127 17.8435 10.6091 18.2402 11.6191 18.4002C12.3782 18.5204 13.1506 18.5044 13.9003 18.3548C14.312 18.2727 14.7404 18.4865 14.8701 18.8856C14.9998 19.2848 14.7818 19.7174 14.3721 19.8086C13.3921 20.0269 12.3774 20.0593 11.3813 19.9015C10.1344 19.704 8.9519 19.2142 7.93053 18.4721C6.90916 17.7301 6.07792 16.7568 5.50476 15.6319C4.9316 14.507 4.63281 13.2625 4.63281 12C4.63281 10.7375 4.9316 9.49296 5.50476 8.36808C6.07791 7.24319 6.90916 6.26993 7.93053 5.52786C8.9519 4.7858 10.1344 4.29599 11.3813 4.09849C12.3774 3.94073 13.3921 3.97307 14.3721 4.19135ZM14.524 7.50962C14.7968 7.19789 15.2706 7.16631 15.5824 7.43907L18.4336 9.93391C19.6858 11.0295 19.6858 12.9775 18.4336 14.0731L15.5824 16.5679C15.2706 16.8407 14.7968 16.8091 14.524 16.4974C14.2513 16.1856 14.2829 15.7118 14.5946 15.4391L17.4458 12.9442C17.5128 12.8856 17.572 12.8216 17.6232 12.7535H9.40098C8.98676 12.7535 8.65098 12.4177 8.65098 12.0035C8.65098 11.5893 8.98676 11.2535 9.40098 11.2535H17.6232C17.572 11.1854 17.5129 11.1214 17.4458 11.0628L14.5946 8.56793C14.2829 8.29517 14.2513 7.82135 14.524 7.50962Z" fill="black"/>
</svg>
