<svg width="24" height="24" viewBox="0 0 24 24" fill="none" xmlns="http://www.w3.org/2000/svg">
<mask id="path-1-inside-1_468_41" fill="white">
<path fill-rule="evenodd" clip-rule="evenodd" d="M14 6C14 7.10457 13.1046 8 12 8C10.8954 8 10 7.10457 10 6C10 4.89543 10.8954 4 12 4C13.1046 4 14 4.89543 14 6ZM14 12C14 13.1046 13.1046 14 12 14C10.8954 14 10 13.1046 10 12C10 10.8954 10.8954 10 12 10C13.1046 10 14 10.8954 14 12ZM12 20C13.1046 20 14 19.1046 14 18C14 16.8954 13.1046 16 12 16C10.8954 16 10 16.8954 10 18C10 19.1046 10.8954 20 12 20Z"/>
</mask>
<path d="M12 9.5C13.933 9.5 15.5 7.933 15.5 6H12.5C12.5 6.27614 12.2761 6.5 12 6.5V9.5ZM8.5 6C8.5 7.933 10.067 9.5 12 9.5V6.5C11.7239 6.5 11.5 6.27614 11.5 6H8.5ZM12 2.5C10.067 2.5 8.5 4.067 8.5 6H11.5C11.5 5.72386 11.7239 5.5 12 5.5V2.5ZM15.5 6C15.5 4.067 13.933 2.5 12 2.5V5.5C12.2761 5.5 12.5 5.72386 12.5 6H15.5ZM12 15.5C13.933 15.5 15.5 13.933 15.5 12H12.5C12.5 12.2761 12.2761 12.5 12 12.5V15.5ZM8.5 12C8.5 13.933 10.067 15.5 12 15.5V12.5C11.7239 12.5 11.5 12.2761 11.5 12H8.5ZM12 8.5C10.067 8.5 8.5 10.067 8.5 12H11.5C11.5 11.7239 11.7239 11.5 12 11.5V8.5ZM15.5 12C15.5 10.067 13.933 8.5 12 8.5V11.5C12.2761 11.5 12.5 11.7239 12.5 12H15.5ZM12.5 18C12.5 18.2761 12.2761 18.5 12 18.5V21.5C13.933 21.5 15.5 19.933 15.5 18H12.5ZM12 17.5C12.2761 17.5 12.5 17.7239 12.5 18H15.5C15.5 16.067 13.933 14.5 12 14.5V17.5ZM11.5 18C11.5 17.7239 11.7239 17.5 12 17.5V14.5C10.067 14.5 8.5 16.067 8.5 18H11.5ZM12 18.5C11.7239 18.5 11.5 18.2761 11.5 18H8.5C8.5 19.933 10.067 21.5 12 21.5V18.5Z" fill="black" mask="url(#path-1-inside-1_468_41)"/>
</svg>
