<svg width="24" height="24" viewBox="0 0 24 24" fill="none" xmlns="http://www.w3.org/2000/svg">
<path fill-rule="evenodd" clip-rule="evenodd" d="M20.5303 3.53217C20.2374 3.23928 19.7626 3.23928 19.4697 3.53217L3.55977 19.4421C3.26687 19.735 3.26687 20.2098 3.55977 20.5027C3.85266 20.7956 4.32753 20.7956 4.62043 20.5027L20.5303 4.59283C20.8232 4.29994 20.8232 3.82506 20.5303 3.53217ZM2.04524 10.8574C5.49994 7.08862 10.5599 5.75254 15.1527 6.84915L13.8768 8.12501C10.0526 7.52365 5.99141 8.77231 3.15097 11.871C3.08509 11.9428 3.08509 12.0531 3.15097 12.125C4.28611 13.3633 5.6162 14.3062 7.04822 14.9536L5.92304 16.0788C4.50492 15.3646 3.18736 14.3845 2.04524 13.1386C1.45367 12.4933 1.45367 11.5027 2.04524 10.8574ZM11.9997 8.99799C12.3039 8.99799 12.5976 9.04328 12.8743 9.1275L11.3619 10.6399C11.0459 10.7886 10.7903 11.0442 10.6416 11.3602L9.12919 12.8727C9.04497 12.5959 8.99968 12.3022 8.99968 11.998C8.99968 10.3411 10.3428 8.99799 11.9997 8.99799ZM14.9231 11.3214L11.3231 14.9214C11.5405 14.9715 11.767 14.998 11.9997 14.998C13.6565 14.998 14.9997 13.6548 14.9997 11.998C14.9997 11.7653 14.9732 11.5388 14.9231 11.3214ZM20.8484 12.125C18.062 15.1647 14.101 16.4241 10.3412 15.9033L9.05062 17.1939C13.5887 18.2034 18.5505 16.8517 21.9541 13.1386C22.5457 12.4933 22.5457 11.5027 21.9541 10.8574C20.8567 9.66017 19.5972 8.70845 18.2423 8.00221L17.1228 9.12163C18.4895 9.76583 19.7588 10.6823 20.8484 11.871C20.9143 11.9428 20.9143 12.0531 20.8484 12.125Z" fill="black"/>
</svg>
