<svg width="24" height="24" viewBox="0 0 24 24" fill="none" xmlns="http://www.w3.org/2000/svg">
<path fill-rule="evenodd" clip-rule="evenodd" d="M20.8484 12.1232C16.0908 17.3133 7.90855 17.3133 3.15097 12.1232C3.08509 12.0513 3.08509 11.941 3.15097 11.8691C7.90855 6.67904 16.0908 6.67904 20.8484 11.8691C20.9143 11.941 20.9143 12.0513 20.8484 12.1232ZM2.04524 13.1368C1.45367 12.4914 1.45367 11.5009 2.04524 10.8555C7.39732 5.01691 16.602 5.0169 21.9541 10.8555C22.5457 11.5009 22.5457 12.4914 21.9541 13.1368C16.602 18.9754 7.39732 18.9754 2.04524 13.1368ZM13.4997 11.9961C13.4997 12.8246 12.8281 13.4961 11.9997 13.4961C11.1713 13.4961 10.4997 12.8246 10.4997 11.9961C10.4997 11.1677 11.1713 10.4961 11.9997 10.4961C12.8281 10.4961 13.4997 11.1677 13.4997 11.9961ZM14.9997 11.9961C14.9997 13.653 13.6565 14.9961 11.9997 14.9961C10.3428 14.9961 8.99968 13.653 8.99968 11.9961C8.99968 10.3393 10.3428 8.99615 11.9997 8.99615C13.6565 8.99615 14.9997 10.3393 14.9997 11.9961Z" fill="black"/>
</svg>
