<svg width="24" height="24" viewBox="0 0 24 24" fill="none" xmlns="http://www.w3.org/2000/svg">
<path fill-rule="evenodd" clip-rule="evenodd" d="M11.456 8.18791C12.0225 7.78127 12.8122 7.91674 13.2107 8.48893L13.5636 8.99561H10.3309L11.456 8.18791ZM14.4416 7.63162C13.5648 6.37279 11.8275 6.07476 10.5813 6.96937L7.7565 8.99718H7C5.34315 8.99718 4 10.3403 4 11.9972V16.9972C4 18.654 5.34315 19.9972 7 19.9972H15C16.6569 19.9972 18 18.654 18 16.9972C19.1046 16.9972 20 16.1017 20 14.9972V13.9972C20 12.8926 19.1046 11.9972 18 11.9972C18 10.4802 16.874 9.22618 15.4123 9.02527L14.4416 7.63162ZM7 10.4972H15C15.8284 10.4972 16.5 11.1687 16.5 11.9972H15C13.8954 11.9972 13 12.8926 13 13.9972V14.9972C13 16.1017 13.8954 16.9972 15 16.9972H16.5C16.5 17.8256 15.8284 18.4972 15 18.4972H7C6.17157 18.4972 5.5 17.8256 5.5 16.9972V11.9972C5.5 11.1687 6.17157 10.4972 7 10.4972ZM15 13.4972C14.7239 13.4972 14.5 13.721 14.5 13.9972V14.9972C14.5 15.2733 14.7239 15.4972 15 15.4972H18C18.2761 15.4972 18.5 15.2733 18.5 14.9972V13.9972C18.5 13.721 18.2761 13.4972 18 13.4972H15Z" fill="black"/>
</svg>
