<svg width="24" height="24" viewBox="0 0 24 24" fill="none" xmlns="http://www.w3.org/2000/svg">
<path fill-rule="evenodd" clip-rule="evenodd" d="M14.0503 13.4375C12.6248 15.4733 9.81881 15.9681 7.78298 14.5426C5.74716 13.1171 5.2524 10.3111 6.67789 8.27528C8.10339 6.23945 10.9093 5.74469 12.9452 7.17019C14.981 8.59569 15.4758 11.4016 14.0503 13.4375ZM14.8108 14.8856C12.8108 17.0983 9.42899 17.5263 6.92262 15.7713C4.20819 13.8706 3.5485 10.1293 5.44917 7.41491C7.34983 4.70048 11.0911 4.04079 13.8055 5.94146C16.3119 7.69644 17.0665 11.0207 15.6711 13.6568L18.3714 15.5476C18.7107 15.7852 18.7932 16.2528 18.5556 16.5921C18.318 16.9314 17.8504 17.0139 17.5111 16.7763L14.8108 14.8856Z" fill="black"/>
</svg>
