<svg width="24" height="24" viewBox="0 0 24 24" fill="none" xmlns="http://www.w3.org/2000/svg">
<path fill-rule="evenodd" clip-rule="evenodd" d="M9 11.5C10.3807 11.5 11.5 10.3807 11.5 9C11.5 7.61929 10.3807 6.5 9 6.5C7.61929 6.5 6.5 7.61929 6.5 9C6.5 10.3807 7.61929 11.5 9 11.5ZM13 9C13 10.5656 12.1005 11.9212 10.7901 12.5781C13.147 13.4747 14.75 16.0941 14.75 19C14.75 19.4142 14.4142 19.75 14 19.75C13.5858 19.75 13.25 19.4142 13.25 19C13.25 15.9667 11.225 13.75 9 13.75C6.77502 13.75 4.75 15.9667 4.75 19C4.75 19.4142 4.41421 19.75 4 19.75C3.58579 19.75 3.25 19.4142 3.25 19C3.25 16.0941 4.85297 13.4747 7.20988 12.5781C5.89949 11.9212 5 10.5656 5 9C5 6.79086 6.79086 5 9 5C11.2091 5 13 6.79086 13 9ZM14.9967 6.5C14.5188 6.5 14.0723 6.63407 13.6926 6.86666C13.5082 6.39349 13.2461 5.9592 12.9219 5.57951C13.5268 5.21177 14.237 5 14.9967 5C17.2058 5 18.9967 6.79086 18.9967 9C18.9967 10.5656 18.0972 11.9212 16.7868 12.5781C19.1437 13.4747 20.7467 16.0941 20.7467 19C20.7467 19.4142 20.4109 19.75 19.9967 19.75C19.5825 19.75 19.2467 19.4142 19.2467 19C19.2467 15.9667 17.2217 13.75 14.9967 13.75L14.9554 13.7503C14.8572 12.895 14.593 12.0902 14.1958 11.3689C14.4472 11.4539 14.7166 11.5 14.9967 11.5C16.3774 11.5 17.4967 10.3807 17.4967 9C17.4967 7.61929 16.3774 6.5 14.9967 6.5Z" fill="black"/>
</svg>
