<svg width="24" height="24" viewBox="0 0 24 24" fill="none" xmlns="http://www.w3.org/2000/svg">
<path fill-rule="evenodd" clip-rule="evenodd" d="M14.5 8C14.5 9.38071 13.3807 10.5 12 10.5C10.6193 10.5 9.5 9.38071 9.5 8C9.5 6.61929 10.6193 5.5 12 5.5C13.3807 5.5 14.5 6.61929 14.5 8ZM16 8C16 10.2091 14.2091 12 12 12C9.79086 12 8 10.2091 8 8C8 5.79086 9.79086 4 12 4C14.2091 4 16 5.79086 16 8ZM12.0853 20H17C18.6569 20 20 18.6569 20 17V15C20 13.3431 18.6569 12 17 12H15.4444L14.8146 13.5H17C17.8284 13.5 18.5 14.1716 18.5 15V17C18.5 17.8284 17.8284 18.5 17 18.5H12.7151L12.0853 20ZM11.2849 18.5L11.9147 20H7C5.34315 20 4 18.6569 4 17V15C4 13.3431 5.34315 12 7 12H8.55558L9.18542 13.5H7C6.17157 13.5 5.5 14.1716 5.5 15V17C5.5 17.8284 6.17157 18.5 7 18.5H11.2849ZM10.527 14.3175C10.5109 14.2772 10.5225 14.2312 10.5558 14.2035L11.936 13.0533C11.9731 13.0224 12.0269 13.0224 12.064 13.0533L13.4442 14.2035C13.4775 14.2312 13.4891 14.2772 13.473 14.3175L12.0928 17.7679C12.0593 17.8517 11.9407 17.8517 11.9072 17.7679L10.527 14.3175Z" fill="black"/>
</svg>
