<svg width="24" height="24" viewBox="0 0 24 24" fill="none" xmlns="http://www.w3.org/2000/svg">
<path fill-rule="evenodd" clip-rule="evenodd" d="M9.0035 5.5H15.0035C16.9365 5.5 18.5035 7.067 18.5035 9V15C18.5035 16.933 16.9365 18.5 15.0035 18.5H11.9217C11.7501 19.0542 11.516 19.5575 11.1851 20H15.0035C17.7649 20 20.0035 17.7614 20.0035 15V9C20.0035 6.23858 17.7649 4 15.0035 4H9.0035C7.0279 4 5.31992 5.14578 4.50781 6.80908C4.71735 6.68562 4.94915 6.57766 5.21213 6.47559C6.05369 6.14892 6.80729 5.91928 7.488 5.84422C7.94656 5.62361 8.46059 5.5 9.0035 5.5ZM11.75 9C11.3358 9 11 9.33579 11 9.75C11 10.1642 11.3358 10.5 11.75 10.5H16.25C16.6642 10.5 17 10.1642 17 9.75C17 9.33579 16.6642 9 16.25 9H11.75ZM13.75 13C13.3358 13 13 13.3358 13 13.75C13 14.1642 13.3358 14.5 13.75 14.5H16.25C16.6642 14.5 17 14.1642 17 13.75C17 13.3358 16.6642 13 16.25 13H13.75ZM7.5 10.5C8.05228 10.5 8.5 10.0523 8.5 9.5C8.5 8.94772 8.05228 8.5 7.5 8.5C6.94772 8.5 6.5 8.94772 6.5 9.5C6.5 10.0523 6.94772 10.5 7.5 10.5ZM7.5 12C8.88071 12 10 10.8807 10 9.5C10 8.11929 8.88071 7 7.5 7C6.11929 7 5 8.11929 5 9.5C5 10.8807 6.11929 12 7.5 12ZM6.66147 13.3229L6 12C4.89543 12 4 12.8954 4 14V18C4 19.1046 4.89543 20 6 20H9C10.1046 20 11 19.1046 11 18V14C11 12.8954 10.1046 12 9 12L8.33853 13.3229L7.5 15L6.66147 13.3229ZM9.5 14.3541L8.84164 15.6708L7.5 18.3541L6.15836 15.6708L5.5 14.3541V18C5.5 18.2761 5.72386 18.5 6 18.5H9C9.27614 18.5 9.5 18.2761 9.5 18V14.3541Z" fill="black"/>
</svg>
