<svg width="24" height="24" viewBox="0 0 24 24" fill="none" xmlns="http://www.w3.org/2000/svg">
<path fill-rule="evenodd" clip-rule="evenodd" d="M18.5 12C18.5 15.5899 15.5899 18.5 12 18.5C8.41015 18.5 5.5 15.5899 5.5 12C5.5 8.41015 8.41015 5.5 12 5.5C15.5899 5.5 18.5 8.41015 18.5 12ZM20 12C20 16.4183 16.4183 20 12 20C7.58172 20 4 16.4183 4 12C4 7.58172 7.58172 4 12 4C16.4183 4 20 7.58172 20 12ZM16.0644 9.99388C16.3372 9.68215 16.3056 9.20833 15.9939 8.93557C15.6822 8.66281 15.2083 8.69439 14.9356 9.00612L11.0757 13.4174L9.01724 11.4569C8.71729 11.1712 8.24256 11.1828 7.9569 11.4828C7.67123 11.7827 7.68281 12.2574 7.98276 12.5431L10.2301 14.6834C10.745 15.1738 11.5647 15.1365 12.0329 14.6014L16.0644 9.99388Z" fill="#179800"/>
</svg>
