<svg width="24" height="24" viewBox="0 0 24 24" fill="none" xmlns="http://www.w3.org/2000/svg">
<path fill-rule="evenodd" clip-rule="evenodd" d="M11 5.5H13C13.2761 5.5 13.5 5.72386 13.5 6H10.5C10.5 5.72386 10.7239 5.5 11 5.5ZM9 6.17071V6C9 4.89543 9.89543 4 11 4H13C14.1046 4 15 4.89543 15 6V6.17071C15.8524 6.47199 16.528 7.14759 16.8293 8H17C18.6569 8 20 9.34315 20 11V17C20 18.6569 18.6569 20 17 20H7C5.34315 20 4 18.6569 4 17V11C4 9.34315 5.34315 8 7 8H7.17071C7.47199 7.14759 8.14759 6.47199 9 6.17071ZM10 7.5C9.17157 7.5 8.5 8.17157 8.5 9C8.5 9.82843 9.17157 10.5 10 10.5H14C14.8284 10.5 15.5 9.82843 15.5 9C15.5 8.17157 14.8284 7.5 14 7.5H13.5H10.5H10ZM7 9.5H7.04148L7.04147 9.49995C7.27949 10.9188 8.51348 12 10 12H14C15.4865 12 16.7205 10.9189 16.9585 9.5H17C17.8284 9.5 18.5 10.1716 18.5 11V17C18.5 17.8284 17.8284 18.5 17 18.5H7C6.17157 18.5 5.5 17.8284 5.5 17V11C5.5 10.1716 6.17157 9.5 7 9.5Z" fill="black"/>
<g clip-path="url(#clip0_468_70)">
<path d="M8.49436 14.634C8.71484 14.4538 8.85573 14.1797 8.85573 13.8724C8.85573 13.3293 8.41547 12.8891 7.8724 12.8891C7.32932 12.8891 6.88906 13.3293 6.88906 13.8724C6.88906 14.1797 7.02995 14.4538 7.25044 14.634C6.83633 14.8962 6.57656 15.4069 6.57656 15.9557C6.57656 16.0961 6.69035 16.2099 6.83073 16.2099C6.97111 16.2099 7.0849 16.0961 7.0849 15.9557C7.0849 15.3612 7.47822 14.9599 7.8724 14.9599C8.26657 14.9599 8.6599 15.3612 8.6599 15.9557C8.6599 16.0961 8.7737 16.2099 8.91406 16.2099C9.05443 16.2099 9.16823 16.0961 9.16823 15.9557C9.16823 15.4069 8.90845 14.8962 8.49436 14.634ZM8.3474 13.8724C8.3474 14.1347 8.13474 14.3474 7.8724 14.3474C7.61006 14.3474 7.3974 14.1347 7.3974 13.8724C7.3974 13.6101 7.61006 13.3974 7.8724 13.3974C8.13474 13.3974 8.3474 13.6101 8.3474 13.8724Z" fill="black" stroke="black" stroke-width="0.3"/>
<path d="M9.0281 13.4912L9.12502 13.6147L9.24401 13.5123C9.32723 13.4406 9.43526 13.3974 9.55375 13.3974C9.81608 13.3974 10.0288 13.6101 10.0288 13.8724C10.0288 14.1347 9.81608 14.3474 9.55375 14.3474C9.48679 14.3474 9.42347 14.3336 9.36609 14.3089L8.87749 14.0986L9.18421 14.5332C9.2538 14.6318 9.3089 14.7412 9.34648 14.8584L9.38296 14.9722L9.50201 14.9621C9.51912 14.9606 9.53639 14.9599 9.55375 14.9599C9.94793 14.9599 10.3413 15.3612 10.3413 15.9557C10.3413 16.0961 10.455 16.2099 10.5954 16.2099C10.7358 16.2099 10.8496 16.0961 10.8496 15.9557C10.8496 15.4069 10.5898 14.8962 10.1757 14.634C10.3962 14.4538 10.5371 14.1797 10.5371 13.8724C10.5371 13.3293 10.0968 12.8891 9.55375 12.8891C9.30303 12.8891 9.0739 12.9831 8.90028 13.1376L8.76877 13.2546L8.9052 13.3659C8.95063 13.4029 8.99187 13.445 9.0281 13.4912Z" fill="black" stroke="black" stroke-width="0.3"/>
</g>
<path fill-rule="evenodd" clip-rule="evenodd" d="M12.75 13C12.3358 13 12 13.3358 12 13.75C12 14.1642 12.3358 14.5 12.75 14.5H16.25C16.6642 14.5 17 14.1642 17 13.75C17 13.3358 16.6642 13 16.25 13H12.75ZM14.75 16C14.3358 16 14 16.3358 14 16.75C14 17.1642 14.3358 17.5 14.75 17.5H16.25C16.6642 17.5 17 17.1642 17 16.75C17 16.3358 16.6642 16 16.25 16H14.75Z" fill="black"/>
<defs>
<clipPath id="clip0_468_70">
<rect width="5" height="5" fill="white" transform="translate(6 12)"/>
</clipPath>
</defs>
</svg>
