<svg width="24" height="24" viewBox="0 0 24 24" fill="none" xmlns="http://www.w3.org/2000/svg">
<path fill-rule="evenodd" clip-rule="evenodd" d="M6.34435 6.34315C6.05146 6.63604 6.05146 7.11091 6.34435 7.40381L10.9405 12L6.34435 16.5962C6.05146 16.8891 6.05146 17.364 6.34435 17.6569C6.63725 17.9497 7.11212 17.9497 7.40501 17.6569L12.0012 13.0607L16.5974 17.6569C16.8903 17.9497 17.3652 17.9497 17.6581 17.6569C17.951 17.364 17.951 16.8891 17.6581 16.5962L13.0619 12L17.6581 7.40381C17.951 7.11091 17.951 6.63604 17.6581 6.34315C17.3652 6.05025 16.8903 6.05025 16.5974 6.34315L12.0012 10.9393L7.40501 6.34315C7.11212 6.05025 6.63725 6.05025 6.34435 6.34315Z" fill="black"/>
</svg>
