<svg width="24" height="24" viewBox="0 0 24 24" fill="none" xmlns="http://www.w3.org/2000/svg">
<path fill-rule="evenodd" clip-rule="evenodd" d="M18.5 12C18.5 15.5899 15.5899 18.5 12 18.5C8.41015 18.5 5.5 15.5899 5.5 12C5.5 8.41015 8.41015 5.5 12 5.5C15.5899 5.5 18.5 8.41015 18.5 12ZM20 12C20 16.4183 16.4183 20 12 20C7.58172 20 4 16.4183 4 12C4 7.58172 7.58172 4 12 4C16.4183 4 20 7.58172 20 12ZM14.3007 11.6818L14.5706 10.5881H13.5605C13.5199 10.3135 13.4381 10.0684 13.3152 9.85283L14.3007 9.84943L14.5848 8.72727H10.7211H10.4655H9.75524L9.42853 10.2756H10.7211C11.081 10.2756 11.3308 10.3655 11.4704 10.5455C11.4815 10.5594 11.4921 10.5736 11.5023 10.5881H9.69842L9.42853 11.6818H11.5805C11.5142 11.8381 11.4101 11.9671 11.268 12.0689C11.1283 12.1707 10.9461 12.2216 10.7211 12.2216H9.58478L9.57058 13.3011L11.8859 16H13.9314V15.929L11.9143 13.4574L11.9925 13.4219C12.3594 13.2562 12.6601 13.0679 12.8944 12.8572C13.1288 12.6465 13.3028 12.392 13.4165 12.0938C13.4641 11.9677 13.502 11.8304 13.5301 11.6818H14.3007Z" fill="black"/>
</svg>
