<svg width="24" height="24" viewBox="0 0 24 24" fill="none" xmlns="http://www.w3.org/2000/svg">
<path fill-rule="evenodd" clip-rule="evenodd" d="M9.00004 6.25C10.5 4.25 13.5 4.25 15 6.25L20.1 13.05C20.3486 13.3814 20.2814 13.8515 19.95 14.1C19.6187 14.3485 19.1486 14.2814 18.9 13.95L18.75 13.75V16.5C18.75 18.5711 17.0711 20.25 15 20.25H9.00004C6.92898 20.25 5.25004 18.5711 5.25004 16.5V13.75L5.10004 13.95C4.85152 14.2814 4.38142 14.3485 4.05004 14.1C3.71867 13.8515 3.65152 13.3814 3.90004 13.05L9.00004 6.25ZM13.8 7.15L17.25 11.75V16.5C17.25 17.7426 16.2427 18.75 15 18.75H9.00004C7.7574 18.75 6.75004 17.7426 6.75004 16.5V11.75L10.2 7.15C11.1 5.95 12.9 5.95 13.8 7.15ZM9.50004 15.25C9.08583 15.25 8.75004 15.5858 8.75004 16C8.75004 16.4142 9.08583 16.75 9.50004 16.75H14.5C14.9143 16.75 15.25 16.4142 15.25 16C15.25 15.5858 14.9143 15.25 14.5 15.25H9.50004Z" fill="black"/>
</svg>
