<svg width="24" height="24" viewBox="0 0 24 24" fill="none" xmlns="http://www.w3.org/2000/svg">
<path fill-rule="evenodd" clip-rule="evenodd" d="M10.5 5.5H13.5C14.0523 5.5 14.5 5.94772 14.5 6.5V8.5C14.5 9.05228 14.0523 9.5 13.5 9.5H10.5C9.94772 9.5 9.5 9.05228 9.5 8.5V6.5C9.5 5.94772 9.94772 5.5 10.5 5.5ZM8 6.5C8 5.11929 9.11929 4 10.5 4H13.5C14.8807 4 16 5.11929 16 6.5V7C18.2091 7 20 8.79086 20 11V16C20 18.2091 18.2091 20 16 20H8C5.79086 20 4 18.2091 4 16V11C4 8.79086 5.79086 7 8 7V6.5ZM16 8.5C16 9.88071 14.8807 11 13.5 11H10.5C9.11929 11 8 9.88071 8 8.5C6.61929 8.5 5.5 9.61929 5.5 11V13.5771L10.4204 12.1713C11.4528 11.8763 12.5472 11.8763 13.5796 12.1713L18.5 13.5771V11C18.5 9.61929 17.3807 8.5 16 8.5ZM5.5 16V15.1372L10.8324 13.6136C11.5955 13.3956 12.4045 13.3956 13.1676 13.6136L18.5 15.1372V16C18.5 17.3807 17.3807 18.5 16 18.5H8C6.61929 18.5 5.5 17.3807 5.5 16ZM12 14.5C11.5858 14.5 11.25 14.8358 11.25 15.25V16.75C11.25 17.1642 11.5858 17.5 12 17.5C12.4142 17.5 12.75 17.1642 12.75 16.75V15.25C12.75 14.8358 12.4142 14.5 12 14.5Z" fill="black"/>
</svg>
