<svg width="117" height="101" viewBox="0 0 117 101" fill="none" xmlns="http://www.w3.org/2000/svg">
<path d="M55.7168 2.49409L7.5448 30.6821C4.20725 32.6351 4.25503 37.4753 7.63049 39.3621L55.8095 66.2919C57.3369 67.1456 59.1995 67.1388 60.7206 66.2738L102.707 42.399C106.041 40.5036 110.179 42.911 110.179 46.7454V80.1355C110.179 81.5408 111.318 82.6801 112.723 82.6801C114.129 82.6801 115.268 81.5408 115.268 80.1355V37.9323C115.268 36.1736 114.344 34.5443 112.835 33.6414L60.8089 2.51871C59.2431 1.58207 57.2915 1.57263 55.7168 2.49409Z" stroke="white" stroke-width="3" stroke-linecap="round" stroke-linejoin="round"/>
<path d="M51.6425 71.3273L24.4921 56.2644C21.1595 54.4155 17.0664 56.8254 17.0664 60.6366V76.9712C17.0664 78.7695 18.032 80.4292 19.5953 81.3179L46.7458 96.7528C50.079 98.6477 54.2169 96.2403 54.2169 92.4061V75.6995C54.2169 73.8826 53.2313 72.2087 51.6425 71.3273Z" stroke="white" stroke-width="3"/>
<path d="M63.4014 71.3273L90.5519 56.2644C93.8845 54.4155 97.9775 56.8254 97.9775 60.6366V76.9712C97.9775 78.7695 97.0119 80.4292 95.4486 81.3179L68.2982 96.7528C64.9649 98.6477 60.8271 96.2403 60.8271 92.4061V75.6995C60.8271 73.8826 61.8127 72.2087 63.4014 71.3273Z" stroke="white" stroke-width="3"/>
<mask id="path-4-inside-1_213_1501" fill="white">
<path fill-rule="evenodd" clip-rule="evenodd" d="M51.6493 14.396C51.6493 11.6346 53.8878 9.396 56.6493 9.396H59.372C62.1334 9.396 64.372 11.6346 64.372 14.396V15.5824C65.3405 15.9148 66.276 16.3182 67.1722 16.7863L67.9727 15.9858C69.9254 14.0332 73.0912 14.0332 75.0438 15.9858L76.9691 17.9111C78.9217 19.8637 78.9217 23.0295 76.9691 24.9822L76.0528 25.8984C76.4205 26.649 76.7434 27.4256 77.0179 28.2247H78.2005C80.962 28.2247 83.2005 30.4633 83.2005 33.2247V35.9475C83.2005 38.7089 80.962 40.9475 78.2005 40.9475H77.1856C76.8394 42.0499 76.4019 43.1118 75.8821 44.1245L76.8224 45.0648C78.775 47.0175 78.775 50.1833 76.8224 52.1359L74.8971 54.0612C72.9445 56.0138 69.7786 56.0138 67.826 54.0612L66.8337 53.0689C66.0412 53.4641 65.2192 53.8092 64.372 54.1V55.287C64.372 58.0484 62.1334 60.287 59.372 60.287H56.6492C53.8878 60.287 51.6493 58.0484 51.6493 55.287V54.2641C50.6717 53.9568 49.7259 53.5778 48.8181 53.1331L48.0548 53.8964C46.1022 55.8491 42.9363 55.8491 40.9837 53.8964L39.0585 51.9712C37.1058 50.0185 37.1058 46.8527 39.0585 44.9001L39.706 44.2525C39.157 43.2014 38.6971 42.0964 38.3363 40.9475H37.3096C34.5481 40.9475 32.3096 38.7089 32.3096 35.9475V33.2247C32.3096 30.4633 34.5481 28.2247 37.3096 28.2247H38.504C38.7944 27.3794 39.1388 26.5593 39.5332 25.7684L38.9117 25.1469C36.9591 23.1943 36.9591 20.0284 38.9117 18.0758L40.837 16.1505C42.7896 14.1979 45.9555 14.1979 47.9081 16.1505L48.4776 16.7201C49.4886 16.2011 50.5488 15.7642 51.6493 15.4182V14.396Z"/>
</mask>
<path d="M64.372 15.5824H61.372C61.372 16.8639 62.186 18.0039 63.3982 18.4199L64.372 15.5824ZM67.1722 16.7863L65.7833 19.4454C66.9452 20.0523 68.3666 19.8346 69.2936 18.9076L67.1722 16.7863ZM67.9727 15.9858L65.8514 13.8645L65.8514 13.8645L67.9727 15.9858ZM75.0438 15.9858L77.1651 13.8645L77.1651 13.8645L75.0438 15.9858ZM76.9691 17.9111L74.8477 20.0324L74.8478 20.0324L76.9691 17.9111ZM76.9691 24.9822L74.8478 22.8608L74.8477 22.8608L76.9691 24.9822ZM76.0528 25.8984L73.9315 23.7771C73.0248 24.6838 72.7946 26.0665 73.3587 27.218L76.0528 25.8984ZM77.0179 28.2247L74.1806 29.1994C74.5968 30.4111 75.7367 31.2247 77.0179 31.2247V28.2247ZM77.1856 40.9475V37.9475C75.875 37.9475 74.7161 38.7982 74.3234 40.0486L77.1856 40.9475ZM75.8821 44.1245L73.2132 42.7545C72.6181 43.9137 72.8394 45.3245 73.7607 46.2459L75.8821 44.1245ZM66.8337 53.0689L68.955 50.9476C68.0428 50.0353 66.6494 49.8084 65.4949 50.3842L66.8337 53.0689ZM64.372 54.1L63.3982 51.2624C62.186 51.6784 61.372 52.8185 61.372 54.1H64.372ZM51.6493 54.2641H54.6493C54.6493 52.9539 53.7989 51.7952 52.5489 51.4022L51.6493 54.2641ZM48.8181 53.1331L50.1377 50.439C48.9862 49.8749 47.6035 50.1051 46.6968 51.0118L48.8181 53.1331ZM48.0548 53.8964L50.1761 56.0178L50.1761 56.0178L48.0548 53.8964ZM40.9837 53.8964L43.105 51.7751L43.105 51.7751L40.9837 53.8964ZM39.0585 51.9712L36.9371 54.0925L36.9371 54.0925L39.0585 51.9712ZM39.0585 44.9001L36.9371 42.7788L36.9371 42.7788L39.0585 44.9001ZM39.706 44.2525L41.8274 46.3738C42.7543 45.4469 42.9721 44.0255 42.3652 42.8636L39.706 44.2525ZM38.3363 40.9475L41.1985 40.0486C40.8058 38.7982 39.6469 37.9475 38.3363 37.9475V40.9475ZM38.504 28.2247V31.2247C39.7852 31.2247 40.925 30.4111 41.3413 29.1994L38.504 28.2247ZM39.5332 25.7684L42.2179 27.1073C42.7937 25.9527 42.5668 24.5593 41.6546 23.6471L39.5332 25.7684ZM38.9117 25.1469L36.7904 27.2682L36.7904 27.2682L38.9117 25.1469ZM47.9081 16.1505L45.7868 18.2719L45.7868 18.2719L47.9081 16.1505ZM48.4776 16.7201L46.3563 18.8414C47.2776 19.7627 48.6884 19.984 49.8476 19.389L48.4776 16.7201ZM51.6493 15.4182L52.5489 18.2802C53.7989 17.8872 54.6493 16.7285 54.6493 15.4182H51.6493ZM56.6493 6.396C52.231 6.396 48.6493 9.97771 48.6493 14.396H54.6493C54.6493 13.2914 55.5447 12.396 56.6493 12.396V6.396ZM59.372 6.396H56.6493V12.396H59.372V6.396ZM67.372 14.396C67.372 9.97772 63.7903 6.396 59.372 6.396V12.396C60.4766 12.396 61.372 13.2914 61.372 14.396H67.372ZM67.372 15.5824V14.396H61.372V15.5824H67.372ZM63.3982 18.4199C64.2227 18.7029 65.0195 19.0465 65.7833 19.4454L68.5612 14.1272C67.5324 13.5898 66.4582 13.1266 65.3458 12.7449L63.3982 18.4199ZM65.8514 13.8645L65.0509 14.665L69.2936 18.9076L70.0941 18.1071L65.8514 13.8645ZM77.1651 13.8645C74.0409 10.7403 68.9756 10.7403 65.8514 13.8645L70.0941 18.1071C70.8751 17.3261 72.1414 17.3261 72.9225 18.1071L77.1651 13.8645ZM79.0904 15.7898L77.1651 13.8645L72.9225 18.1071L74.8477 20.0324L79.0904 15.7898ZM79.0904 27.1035C82.2146 23.9793 82.2146 18.914 79.0904 15.7898L74.8478 20.0324C75.6288 20.8135 75.6288 22.0798 74.8478 22.8608L79.0904 27.1035ZM78.1742 28.0197L79.0904 27.1035L74.8477 22.8608L73.9315 23.7771L78.1742 28.0197ZM73.3587 27.218C73.6719 27.8576 73.9469 28.519 74.1806 29.1994L79.8551 27.2501C79.5399 26.3323 79.1691 25.4405 78.747 24.5787L73.3587 27.218ZM78.2005 25.2247H77.0179V31.2247H78.2005V25.2247ZM86.2005 33.2247C86.2005 28.8065 82.6188 25.2247 78.2005 25.2247V31.2247C79.3051 31.2247 80.2005 32.1202 80.2005 33.2247H86.2005ZM86.2005 35.9475V33.2247H80.2005V35.9475H86.2005ZM78.2005 43.9475C82.6188 43.9475 86.2005 40.3658 86.2005 35.9475H80.2005C80.2005 37.052 79.3051 37.9475 78.2005 37.9475V43.9475ZM77.1856 43.9475H78.2005V37.9475H77.1856V43.9475ZM74.3234 40.0486C74.0287 40.9872 73.6561 41.8916 73.2132 42.7545L78.551 45.4946C79.1477 44.3321 79.6501 43.1126 80.0477 41.8463L74.3234 40.0486ZM78.9437 42.9435L78.0034 42.0032L73.7607 46.2459L74.701 47.1862L78.9437 42.9435ZM78.9437 54.2572C82.0679 51.133 82.0679 46.0677 78.9437 42.9435L74.701 47.1862C75.4821 47.9672 75.4821 49.2335 74.701 50.0146L78.9437 54.2572ZM77.0184 56.1825L78.9437 54.2572L74.701 50.0146L72.7758 51.9399L77.0184 56.1825ZM65.7047 56.1825C68.8289 59.3067 73.8942 59.3067 77.0184 56.1825L72.7758 51.9399C71.9947 52.7209 70.7284 52.7209 69.9473 51.9398L65.7047 56.1825ZM64.7124 55.1902L65.7047 56.1825L69.9473 51.9398L68.955 50.9476L64.7124 55.1902ZM65.4949 50.3842C64.8196 50.721 64.1195 51.0149 63.3982 51.2624L65.3458 56.9375C66.3189 56.6036 67.2628 56.2073 68.1726 55.7535L65.4949 50.3842ZM67.372 55.287V54.1H61.372V55.287H67.372ZM59.372 63.287C63.7903 63.287 67.372 59.7052 67.372 55.287H61.372C61.372 56.3915 60.4766 57.287 59.372 57.287V63.287ZM56.6492 63.287H59.372V57.287H56.6492V63.287ZM48.6493 55.287C48.6493 59.7052 52.231 63.287 56.6492 63.287V57.287C55.5447 57.287 54.6493 56.3915 54.6493 55.287H48.6493ZM48.6493 54.2641V55.287H54.6493V54.2641H48.6493ZM52.5489 51.4022C51.7166 51.1406 50.9112 50.8178 50.1377 50.439L47.4985 55.8273C48.5406 56.3378 49.6267 56.7731 50.7496 57.1261L52.5489 51.4022ZM50.1761 56.0178L50.9394 55.2544L46.6968 51.0118L45.9335 51.7751L50.1761 56.0178ZM38.8624 56.0178C41.9866 59.1419 47.0519 59.1419 50.1761 56.0178L45.9335 51.7751C45.1524 52.5562 43.8861 52.5562 43.105 51.7751L38.8624 56.0178ZM36.9371 54.0925L38.8624 56.0178L43.105 51.7751L41.1798 49.8498L36.9371 54.0925ZM36.9371 42.7788C33.8129 45.903 33.8129 50.9683 36.9371 54.0925L41.1798 49.8498C40.3987 49.0688 40.3987 47.8025 41.1798 47.0214L36.9371 42.7788ZM37.5847 42.1312L36.9371 42.7788L41.1798 47.0214L41.8274 46.3738L37.5847 42.1312ZM42.3652 42.8636C41.8973 41.9679 41.5056 41.0268 41.1985 40.0486L35.4741 41.8463C35.8885 43.166 36.4167 44.4349 37.0469 45.6414L42.3652 42.8636ZM37.3096 43.9475H38.3363V37.9475H37.3096V43.9475ZM29.3096 35.9475C29.3096 40.3658 32.8913 43.9475 37.3096 43.9475V37.9475C36.205 37.9475 35.3096 37.052 35.3096 35.9475H29.3096ZM29.3096 33.2247V35.9475H35.3096V33.2247H29.3096ZM37.3096 25.2247C32.8913 25.2247 29.3096 28.8065 29.3096 33.2247H35.3096C35.3096 32.1202 36.205 31.2247 37.3096 31.2247V25.2247ZM38.504 25.2247H37.3096V31.2247H38.504V25.2247ZM41.3413 29.1994C41.5885 28.4797 41.8818 27.7811 42.2179 27.1073L36.8486 24.4295C36.3958 25.3374 36.0002 26.2792 35.6667 27.2501L41.3413 29.1994ZM36.7904 27.2682L37.4119 27.8897L41.6546 23.6471L41.0331 23.0256L36.7904 27.2682ZM36.7904 15.9545C33.6662 19.0787 33.6662 24.144 36.7904 27.2682L41.0331 23.0256C40.252 22.2445 40.252 20.9782 41.0331 20.1971L36.7904 15.9545ZM38.7157 14.0292L36.7904 15.9545L41.0331 20.1971L42.9583 18.2719L38.7157 14.0292ZM50.0294 14.0292C46.9052 10.905 41.8399 10.905 38.7157 14.0292L42.9583 18.2719C43.7394 17.4908 45.0057 17.4908 45.7868 18.2719L50.0294 14.0292ZM50.5989 14.5987L50.0294 14.0292L45.7868 18.2719L46.3563 18.8414L50.5989 14.5987ZM49.8476 19.389C50.7091 18.9467 51.612 18.5747 52.5489 18.2802L50.7496 12.5563C49.4856 12.9537 48.2682 13.4554 47.1076 14.0511L49.8476 19.389ZM48.6493 14.396V15.4182H54.6493V14.396H48.6493Z" fill="white" mask="url(#path-4-inside-1_213_1501)"/>
<circle cx="57.7673" cy="34.8405" r="13.7673" stroke="white" stroke-width="3"/>
</svg>
