<svg width="24" height="24" viewBox="0 0 24 24" fill="none" xmlns="http://www.w3.org/2000/svg">
<path fill-rule="evenodd" clip-rule="evenodd" d="M18.5 12C18.5 15.5899 15.5899 18.5 12 18.5C8.41015 18.5 5.5 15.5899 5.5 12C5.5 8.41015 8.41015 5.5 12 5.5C15.5899 5.5 18.5 8.41015 18.5 12ZM20 12C20 16.4183 16.4183 20 12 20C7.58172 20 4 16.4183 4 12C4 7.58172 7.58172 4 12 4C16.4183 4 20 7.58172 20 12ZM11.1602 9.23639C11.0741 8.72004 11.4723 8.25 11.9958 8.25C12.5192 8.25 12.9174 8.72004 12.8314 9.23639L12.1931 13.0663C12.1559 13.2892 11.8356 13.2892 11.7985 13.0663L11.1602 9.23639ZM12.7458 15C12.7458 15.4142 12.41 15.75 11.9958 15.75C11.5816 15.75 11.2458 15.4142 11.2458 15C11.2458 14.5858 11.5816 14.25 11.9958 14.25C12.41 14.25 12.7458 14.5858 12.7458 15Z" fill="#D5A600"/>
</svg>
